<svg width="200" height="200" xmlns="http://www.w3.org/2000/svg">
 <!-- Exported by Scratch - http://scratch.mit.edu/ -->

 <g>
  <title>background</title>
  <rect fill="none" id="canvas_background" height="202" width="202" y="0" x="0"/>
 </g>
 <g>
  <title>Layer 1</title>
  <rect id="svg_1" height="200" width="198.99999" y="-3.5" x="-1" stroke-width="1.5" fill="#ff0000" stroke="#000"/>
  <path id="svg_4" d="m48.5,29.5" opacity="0.5" fill-opacity="null" stroke-opacity="null" stroke-width="1.5" stroke="#000" fill="none"/>
  <path d="m48.5,27.5c0,0 0.22975,1.02675 0,2c-0.51374,2.17625 -1.48626,4.82375 -2,7c-0.22975,0.97325 -0.45881,1.69344 -1,3c-0.38268,0.92388 0,2 0,4c0,2 0,4 0,5c0,2 0,3 0,5c0,1 0,2 0,3c0,1 -1,2 -1,4c0,2 0,4 0,6c0,1 0,2 0,4c0,1 0,3 0,4c0,1 0,2 0,3c0,1 0,2 0,3c0,1 0,2 0,4c0,1 0,2 0,3c0,1 0,2 0,3c0,1 0,2 0,3c0,1 0,2 0,3l0,1l0,1" id="svg_5" fill-opacity="null" stroke-opacity="null" stroke-width="6.5" stroke="#000" fill="none"/>
  <path d="m149.5,27.5c0,0 0.22975,1.02675 0,2c-0.51374,2.17625 -1.48626,4.82375 -2,7c-0.22975,0.97325 -0.45881,1.69344 -1,3c-0.38268,0.92388 0,2 0,4c0,2 0,4 0,5c0,2 0,3 0,5c0,1 0,2 0,3c0,1 -1,2 -1,4c0,2 0,4 0,6c0,1 0,2 0,4c0,1 0,3 0,4c0,1 0,2 0,3c0,1 0,2 0,3c0,1 0,2 0,4c0,1 0,2 0,3c0,1 0,2 0,3c0,1 0,2 0,3c0,1 0,2 0,3l0,1l0,1" id="svg_6" fill-opacity="null" stroke-opacity="null" stroke-width="6.5" stroke="#000" fill="none"/>
  <path stroke="#000" transform="rotate(-92.4103775024414 86.05105590820314,159.50000000000003) " d="m96.64914,109.87031c0,0 1.24935,1.43542 0,2.79604c-2.79365,3.04244 -8.08207,6.7437 -10.87572,9.78614c-1.24935,1.36062 -2.49494,2.36746 -5.43786,4.19406c-2.08096,1.2916 0,2.79604 0,5.59208c0,2.79604 0,5.59208 0,6.9901c0,2.79604 0,4.19406 0,6.9901c0,1.39802 0,2.79604 0,4.19406c0,1.39802 -5.43786,2.79604 -5.43786,5.59208c0,2.79604 0,5.59208 0,8.38812c0,1.39802 0,2.79604 0,5.59208c0,1.39802 0,4.19406 0,5.59208c0,1.39802 0,2.79604 0,4.19406c0,1.39802 0,2.79604 0,4.19406c0,1.39802 0,2.79604 0,5.59208c0,1.39802 0,2.79604 0,4.19406c0,1.39802 0,2.79604 0,4.19406c0,1.39802 0,2.79604 0,4.19406c0,1.39802 0,2.79604 0,4.19406l0,1.39802l0,1.39802" id="svg_7" fill-opacity="null" stroke-opacity="null" stroke-width="6.5" fill="none"/>
 </g>
</svg>